<svg width="736" height="261" viewBox="0 0 736 261" fill="none" xmlns="http://www.w3.org/2000/svg">
<path fill-rule="evenodd" clip-rule="evenodd" d="M441.5 63.5C447.82 63.3996 453.82 64.3996 459.5 66.5C453.291 65.9791 447.291 64.9791 441.5 63.5Z" fill="#DC3545"/>
<path fill-rule="evenodd" clip-rule="evenodd" d="M481.5 70.5003C484.152 70.4098 486.485 71.0765 488.5 72.5003C485.848 72.5908 483.515 71.9241 481.5 70.5003Z" fill="#DC3545"/>
<path fill-rule="evenodd" clip-rule="evenodd" d="M511.5 78.5003C503.629 76.8693 495.962 74.8693 488.5 72.5003C492.163 71.8878 495.83 71.7211 499.5 72.0003C498.833 72.3336 498.167 72.667 497.5 73.0003C500.832 73.2491 503.999 74.0824 507 75.5003C509.65 74.2899 511.15 75.2899 511.5 78.5003Z" fill="#DC3545"/>
<path fill-rule="evenodd" clip-rule="evenodd" d="M423.5 76.5003C428.616 77.8066 433.949 78.4733 439.5 78.5003C443.336 79.378 447.336 80.0446 451.5 80.5003C451.567 81.959 451.234 83.2924 450.5 84.5003C447.328 90.8627 444.661 97.5294 442.5 104.5C441.975 105.192 441.308 105.692 440.5 106C436.514 106.499 432.514 106.666 428.5 106.5C397.5 106.5 366.5 106.5 335.5 106.5C335.318 101.206 334.818 101.206 334 106.5C333.768 105.263 333.268 104.263 332.5 103.5C332.276 99.4387 330.276 96.6053 326.5 95.0003C344.551 83.873 364.217 77.5397 385.5 76.0003C398.175 75.475 410.842 75.6416 423.5 76.5003Z" fill="#DC3545"/>
<path fill-rule="evenodd" clip-rule="evenodd" d="M511.5 78.5003C514.152 78.4098 516.485 79.0765 518.5 80.5003C515.848 80.5908 513.515 79.9241 511.5 78.5003Z" fill="#DC3545"/>
<path fill-rule="evenodd" clip-rule="evenodd" d="M455.5 81.4995C458.187 81.3354 460.854 81.5021 463.5 81.9995C479.902 85.6784 496.236 89.6784 512.5 93.9995C513.956 94.4221 514.456 95.2554 514 96.4995C512.143 99.1993 509.643 100.866 506.5 101.5C500.129 101.062 494.129 102.062 488.5 104.5C486.5 104.5 484.5 104.5 482.5 104.5C471.495 104.667 460.495 104.5 449.5 104C448.663 102.989 448.33 101.822 448.5 100.5C449.883 95.4006 451.55 90.4006 453.5 85.4995C454.167 84.1662 454.833 82.8328 455.5 81.4995Z" fill="#DC3545"/>
<path fill-rule="evenodd" clip-rule="evenodd" d="M532.5 84.5C535.522 84.804 538.522 85.304 541.5 86C542.942 86.3768 543.942 87.2101 544.5 88.5C541.15 87.4967 537.817 86.4967 534.5 85.5C533.508 85.6716 532.842 85.3382 532.5 84.5Z" fill="#DC3545"/>
<path fill-rule="evenodd" clip-rule="evenodd" d="M549.5 89.5003C552.152 89.4098 554.485 90.0765 556.5 91.5003C553.848 91.5908 551.515 90.9241 549.5 89.5003Z" fill="#DC3545"/>
<path fill-rule="evenodd" clip-rule="evenodd" d="M556.5 91.5C562.675 91.7928 568.342 93.4595 573.5 96.5C567.567 95.4078 561.9 93.7412 556.5 91.5Z" fill="#DC3545"/>
<path fill-rule="evenodd" clip-rule="evenodd" d="M428.5 106.5C428.5 106.833 428.5 107.167 428.5 107.5C396.5 107.5 364.5 107.5 332.5 107.5C332.5 106.167 332.5 104.833 332.5 103.5C333.268 104.263 333.768 105.263 334 106.5C334.818 101.206 335.318 101.206 335.5 106.5C366.5 106.5 397.5 106.5 428.5 106.5Z" fill="#DC3545"/>
<path fill-rule="evenodd" clip-rule="evenodd" d="M642.5 103.5C640.648 107.76 637.314 109.427 632.5 108.5C631.262 108.19 631.262 107.69 632.5 107C635.605 105.132 638.938 103.965 642.5 103.5Z" fill="#DC3545"/>
<path fill-rule="evenodd" clip-rule="evenodd" d="M226.5 108.5C220.167 109.167 213.833 109.833 207.5 110.5C204.833 110.5 202.167 110.5 199.5 110.5C199.918 109.778 200.584 109.278 201.5 109C209.827 108.5 218.16 108.334 226.5 108.5Z" fill="#DC3545"/>
<path fill-rule="evenodd" clip-rule="evenodd" d="M441.5 63.5C447.291 64.9791 453.291 65.9791 459.5 66.5C466.724 68.26 474.057 69.5934 481.5 70.5C483.515 71.9238 485.848 72.5905 488.5 72.5C495.962 74.869 503.629 76.869 511.5 78.5C513.515 79.9238 515.848 80.5905 518.5 80.5C522.967 82.4508 527.633 83.7841 532.5 84.5C532.842 85.3382 533.508 85.6716 534.5 85.5C534.577 86.7498 535.244 87.5831 536.5 88C534.75 89.3186 532.75 89.8186 530.5 89.5C528.485 88.0762 526.152 87.4095 523.5 87.5C521.565 86.8505 519.565 86.5172 517.5 86.5C505.309 83.0336 492.976 79.7003 480.5 76.5C478.485 75.0762 476.152 74.4095 473.5 74.5C468.167 73.8333 462.833 73.1667 457.5 72.5C457.5 73.8333 457.5 75.1667 457.5 76.5C459.5 76.8333 461.5 77.1667 463.5 77.5C463.196 78.1499 462.863 78.8165 462.5 79.5C460.031 80.1681 457.698 80.8347 455.5 81.5C454.833 82.8333 454.167 84.1667 453.5 85.5C452.365 84.8973 451.365 84.5639 450.5 84.5C451.234 83.2921 451.567 81.9587 451.5 80.5C447.336 80.0443 443.336 79.3777 439.5 78.5C434.402 77.0427 429.069 76.376 423.5 76.5C410.842 75.6413 398.175 75.4747 385.5 76C364.217 77.5394 344.551 83.8727 326.5 95C330.276 96.605 332.276 99.4384 332.5 103.5C332.5 104.833 332.5 106.167 332.5 107.5C364.5 107.5 396.5 107.5 428.5 107.5C432.182 107.335 435.848 107.501 439.5 108C440.167 108.667 440.833 109.333 441.5 110C428.66 110.169 415.993 110.669 403.5 111.5C391.502 111.903 379.502 112.237 367.5 112.5C354.496 112.333 341.496 112.5 328.5 113C327.833 113.667 327.167 114.333 326.5 115C332.825 115.5 339.158 115.666 345.5 115.5C340.167 116.167 334.833 116.833 329.5 117.5C312.84 118.099 296.173 118.599 279.5 119C278.29 120.039 277.29 121.206 276.5 122.5C275.833 121.833 275.167 121.167 274.5 120.5C272.257 119.188 269.59 118.522 266.5 118.5C230.788 118.906 195.121 120.406 159.5 123C143.363 124.779 127.363 127.279 111.5 130.5C110.659 129.074 109.659 127.74 108.5 126.5C120.345 121.724 132.678 118.224 145.5 116C163.424 113.355 181.424 111.522 199.5 110.5C202.167 110.5 204.833 110.5 207.5 110.5C214.047 110.225 220.547 110.558 227 111.5C235.674 109.593 244.507 108.926 253.5 109.5C257.875 110.913 262.209 110.746 266.5 109C292.495 95.1689 318.828 82.1689 345.5 70C363.601 64.635 382.101 61.8017 401 61.5C414.511 62.0258 428.011 62.6925 441.5 63.5Z" fill="white"/>
<path fill-rule="evenodd" clip-rule="evenodd" d="M315.5 100.5C319.182 100.335 322.848 100.501 326.5 101C327.406 102.699 327.739 104.533 327.5 106.5C321.516 107.074 315.516 107.407 309.5 107.5C309.351 106.448 309.517 105.448 310 104.5C312.015 103.303 313.849 101.97 315.5 100.5Z" fill="#DC3545"/>
<path fill-rule="evenodd" clip-rule="evenodd" d="M473.5 74.5C475.515 75.9238 477.848 76.5905 480.5 76.5C492.976 79.7003 505.309 83.0336 517.5 86.5C516.234 87.0899 514.901 87.5899 513.5 88C514.416 88.2784 515.082 88.7784 515.5 89.5C498.242 85.1856 480.909 81.1856 463.5 77.5C461.5 77.1667 459.5 76.8333 457.5 76.5C457.5 75.1667 457.5 73.8333 457.5 72.5C462.833 73.1667 468.167 73.8333 473.5 74.5Z" fill="#DC3545"/>
<path fill-rule="evenodd" clip-rule="evenodd" d="M423.5 76.4999C429.069 76.3759 434.402 77.0426 439.5 78.4999C433.949 78.4729 428.616 77.8062 423.5 76.4999Z" fill="#DC3545"/>
<path fill-rule="evenodd" clip-rule="evenodd" d="M473.5 74.5003C476.152 74.4098 478.485 75.0765 480.5 76.5003C477.848 76.5908 475.515 75.9241 473.5 74.5003Z" fill="#DC3545"/>
<path fill-rule="evenodd" clip-rule="evenodd" d="M431.5 68.5C438.308 69.8951 445.308 70.8951 452.5 71.5C453.5 71.5 454.5 71.5 455.5 71.5C455.763 74.7343 454.263 76.0676 451 75.5C428.641 71.9615 406.141 70.6282 383.5 71.5C378.586 71.3618 373.919 72.0285 369.5 73.5C360.915 74.9609 352.581 77.2943 344.5 80.5C343.833 80.5 343.5 80.1667 343.5 79.5C346.63 78.4278 349.296 76.5945 351.5 74C367.994 69.3667 384.827 67.2 402 67.5C411.839 67.7628 421.672 68.0961 431.5 68.5Z" fill="#DC3545"/>
<path fill-rule="evenodd" clip-rule="evenodd" d="M383.5 71.5002C379.081 72.9717 374.414 73.6384 369.5 73.5002C373.919 72.0287 378.586 71.362 383.5 71.5002Z" fill="#DC3545"/>
<path fill-rule="evenodd" clip-rule="evenodd" d="M431.5 68.4998C438.787 68.4499 445.787 69.4499 452.5 71.4998C445.308 70.8949 438.308 69.8949 431.5 68.4998Z" fill="#DC3545"/>
<path fill-rule="evenodd" clip-rule="evenodd" d="M343.5 79.5C343.5 80.1667 343.833 80.5 344.5 80.5C325.492 89.1725 307.158 99.1725 289.5 110.5C288.167 109.833 288.167 109.167 289.5 108.5C306.599 97.2819 324.599 87.6152 343.5 79.5Z" fill="#DC3545"/>
<path fill-rule="evenodd" clip-rule="evenodd" d="M226.5 108.5C235.682 108.173 244.682 108.507 253.5 109.5C244.507 108.926 235.674 109.593 227 111.5C220.547 110.558 214.047 110.225 207.5 110.5C213.833 109.833 220.167 109.167 226.5 108.5Z" fill="#DC3545"/>
<path fill-rule="evenodd" clip-rule="evenodd" d="M287.5 103.5C288.552 103.351 289.552 103.517 290.5 104C286.007 107.751 281.007 110.084 275.5 111C279.732 108.725 283.732 106.225 287.5 103.5Z" fill="#DC3545"/>
<path fill-rule="evenodd" clip-rule="evenodd" d="M590.5 113.5C606.193 114.418 621.86 114.752 637.5 114.5C635.832 116.34 634.332 118.34 633 120.5C632.694 125.913 633.027 131.246 634 136.5C630.59 140.416 626.757 143.749 622.5 146.5C621.89 144.15 621.556 144.483 621.5 147.5C618.557 149.545 615.224 151.045 611.5 152C605.319 152.172 599.319 152.672 593.5 153.5C588.821 153.666 584.155 153.499 579.5 153C578.956 152.283 578.289 151.783 577.5 151.5C565.308 139.483 550.474 133.816 533 134.5C524.775 134.079 516.942 135.579 509.5 139C500.801 144.014 492.135 149.014 483.5 154C479.5 154.667 475.5 154.667 471.5 154C464.9 151.528 458.233 149.361 451.5 147.5C452.715 142.879 453.715 138.213 454.5 133.5C455.404 132.791 455.737 131.791 455.5 130.5C460.844 130.666 466.177 130.499 471.5 130C466.355 128.554 461.021 128.054 455.5 128.5C455.405 126.214 454.738 124.214 453.5 122.5C452.466 118.757 451.132 115.09 449.5 111.5C476.136 109.587 502.802 109.087 529.5 110C549.829 111.413 570.162 112.579 590.5 113.5Z" fill="#DC3545"/>
<path fill-rule="evenodd" clip-rule="evenodd" d="M403.5 111.5C417.171 111.333 430.837 111.5 444.5 112C446.333 112.5 447.5 113.667 448 115.5C450.09 119.599 451.256 123.933 451.5 128.5C396.836 129.357 342.169 130.024 287.5 130.5C282.381 131.103 277.715 130.436 273.5 128.5C273.975 126.216 274.975 124.216 276.5 122.5C277.29 121.206 278.29 120.039 279.5 119C296.173 118.599 312.84 118.099 329.5 117.5C335.206 117.829 340.872 117.495 346.5 116.5C346.376 115.893 346.043 115.56 345.5 115.5C340.349 114.673 335.016 114.173 329.5 114C342.34 113.831 355.007 113.331 367.5 112.5C379.502 112.237 391.502 111.903 403.5 111.5Z" fill="#DC3545"/>
<path fill-rule="evenodd" clip-rule="evenodd" d="M308.5 109.5C313.179 109.334 317.845 109.501 322.5 110C317.754 112.27 312.754 113.437 307.5 113.5C307.433 112.041 307.766 110.708 308.5 109.5Z" fill="#DC3545"/>
<path fill-rule="evenodd" clip-rule="evenodd" d="M633.5 112.5C635.527 112.338 637.527 112.505 639.5 113C638.956 113.717 638.289 114.217 637.5 114.5C621.86 114.752 606.193 114.418 590.5 113.5C604.882 113.8 619.215 113.466 633.5 112.5Z" fill="#DC3545"/>
<path fill-rule="evenodd" clip-rule="evenodd" d="M288.5 113.5C290.288 113.215 291.955 113.548 293.5 114.5C292.667 114.833 291.833 115.167 291 115.5C289.624 115.316 288.791 114.649 288.5 113.5Z" fill="#DC3545"/>
<path fill-rule="evenodd" clip-rule="evenodd" d="M367.5 112.5C355.007 113.331 342.34 113.831 329.5 114C335.016 114.173 340.349 114.673 345.5 115.5C339.158 115.666 332.825 115.5 326.5 115C327.167 114.333 327.833 113.667 328.5 113C341.496 112.5 354.496 112.333 367.5 112.5Z" fill="#DC3545"/>
<path fill-rule="evenodd" clip-rule="evenodd" d="M275.5 114.5C277.857 114.337 280.19 114.503 282.5 115C279.816 117.145 277.483 116.978 275.5 114.5Z" fill="#DC3545"/>
<path fill-rule="evenodd" clip-rule="evenodd" d="M345.5 115.5C346.043 115.56 346.376 115.893 346.5 116.5C340.872 117.495 335.206 117.829 329.5 117.5C334.833 116.833 340.167 116.167 345.5 115.5Z" fill="#DC3545"/>
<path fill-rule="evenodd" clip-rule="evenodd" d="M274.5 120.5C272.777 122.253 271.277 124.253 270 126.5C268.991 128.025 268.491 129.692 268.5 131.5C207.19 133.165 207.19 134.165 268.5 134.5C268.5 137.833 268.5 141.167 268.5 144.5C253.136 142.746 238.47 145.079 224.5 151.5C207.472 137.198 187.806 132.031 165.5 136C159.488 138.168 153.488 140.335 147.5 142.5C144.72 140.897 142.054 139.063 139.5 137C122.904 136.46 106.571 138.293 90.5003 142.5C90.3508 141.448 90.5175 140.448 91.0003 139.5C97.4779 135.507 104.311 132.507 111.5 130.5C127.363 127.279 143.363 124.779 159.5 123C195.121 120.406 230.788 118.906 266.5 118.5C269.59 118.522 272.257 119.188 274.5 120.5Z" fill="#DC3545"/>
<path fill-rule="evenodd" clip-rule="evenodd" d="M453.5 122.5C454.738 124.214 455.405 126.214 455.5 128.5C461.021 128.054 466.355 128.554 471.5 130C466.177 130.499 460.844 130.666 455.5 130.5C455.737 131.791 455.404 132.791 454.5 133.5C454.727 129.947 454.394 126.28 453.5 122.5Z" fill="#DC3545"/>
<path fill-rule="evenodd" clip-rule="evenodd" d="M351.5 145.5C353.833 145.5 356.167 145.5 358.5 145.5C382.836 145.333 407.169 145.5 431.5 146C436.486 146.997 441.486 147.831 446.5 148.5C443.684 159.133 440.017 169.466 435.5 179.5C434.977 181.708 433.644 183.208 431.5 184C419.171 184.5 406.838 184.667 394.5 184.5C383.828 184.333 373.161 184.5 362.5 185C361.263 185.232 360.263 185.732 359.5 186.5C351.167 186.5 342.833 186.5 334.5 186.5C315.168 186.919 295.835 187.253 276.5 187.5C276.81 184.287 276.477 181.287 275.5 178.5C273.517 168.266 272.517 157.932 272.5 147.5C277.5 147.5 282.5 147.5 287.5 147.5C308.999 147.054 330.333 146.387 351.5 145.5Z" fill="#DC3545"/>
<path fill-rule="evenodd" clip-rule="evenodd" d="M266.5 189.5C260.794 189.171 255.128 189.505 249.5 190.5C256.803 191.497 264.137 191.831 271.5 191.5C272.728 192.306 273.728 193.306 274.5 194.5C275.15 196.435 275.483 198.435 275.5 200.5C261.833 200.5 248.167 200.5 234.5 200.5C234.768 198.901 234.434 197.568 233.5 196.5C232.775 181.986 228.109 168.986 219.5 157.5C216.12 152.954 211.953 149.288 207 146.5C206.568 145.4 207.068 144.733 208.5 144.5C212.854 146.344 216.521 149.177 219.5 153C221.034 153.923 222.701 154.423 224.5 154.5C229.56 152.759 234.56 150.925 239.5 149C249.167 148.333 258.833 148.333 268.5 149C270.035 159.604 271.369 170.27 272.5 181C272.333 183.5 272.167 186 272 188.5C270.301 189.406 268.467 189.739 266.5 189.5Z" fill="#DC3545"/>
<path fill-rule="evenodd" clip-rule="evenodd" d="M509.5 145.5C502.642 149.02 496.642 153.687 491.5 159.5C491.48 157.857 492.147 156.524 493.5 155.5C492.675 154.614 491.675 154.281 490.5 154.5C495.904 150.285 501.737 146.619 508 143.5C509.03 143.836 509.53 144.503 509.5 145.5Z" fill="#DC3545"/>
<path fill-rule="evenodd" clip-rule="evenodd" d="M490.5 154.5C491.675 154.281 492.675 154.614 493.5 155.5C492.147 156.524 491.48 157.857 491.5 159.5C487.371 166.925 483.371 174.425 479.5 182C471.507 182.5 463.507 182.666 455.5 182.5C449.642 182.822 443.975 182.489 438.5 181.5C438.5 180.833 438.5 180.167 438.5 179.5C442.772 170.206 446.772 160.706 450.5 151C457.57 152.912 464.57 155.246 471.5 158C478.37 159.405 484.703 158.239 490.5 154.5Z" fill="#DC3545"/>
<path fill-rule="evenodd" clip-rule="evenodd" d="M149.5 147.5C145.586 151.917 141.419 156.251 137 160.5C131.568 169.126 127.902 178.46 126 188.5C126.131 195.246 125.298 201.579 123.5 207.5C109.212 205.982 94.8782 205.315 80.4995 205.5C80.3337 200.821 80.5003 196.155 80.9995 191.5C83.0403 190.577 85.207 190.244 87.4995 190.5C87.4995 193.833 87.4995 197.167 87.4995 200.5C96.5835 200.392 105.584 200.558 114.5 201C109.693 194.026 104.693 187.193 99.4995 180.5C96.8317 179.148 93.9984 178.481 90.9995 178.5C87.5096 178.999 84.0096 179.332 80.4995 179.5C80.0742 172.732 82.0742 166.898 86.4995 162C98.8685 159.491 111.202 156.824 123.5 154C129.64 150.091 135.64 145.925 141.5 141.5C142.833 142.167 143.833 143.167 144.5 144.5C140.849 148.652 137.016 152.652 133 156.5C132.333 157.5 132.333 158.5 133 159.5C137.386 154.611 142.22 150.278 147.5 146.5C148.183 146.863 148.85 147.196 149.5 147.5Z" fill="#DC3545"/>
<path fill-rule="evenodd" clip-rule="evenodd" d="M623.5 208.5C618.586 208.362 613.919 209.028 609.5 210.5C602.187 211.554 594.854 212.054 587.5 212C585.892 207.352 585.058 202.519 585 197.5C582.395 210.057 576.228 220.39 566.5 228.5C565.417 227.635 565.251 226.635 566 225.5C583.313 206.483 584.979 186.15 571 164.5C565.603 157.905 559.103 152.905 551.5 149.5C549.723 148.4 547.723 147.566 545.5 147C539.319 146.181 533.319 146.347 527.5 147.5C503.99 152.511 491.324 167.011 489.5 191C489.26 204.955 494.093 216.789 504 226.5C504.591 227.483 504.257 228.15 503 228.5C492.893 220.301 486.893 209.634 485 196.5C484.667 202.167 484.333 207.833 484 213.5C483.5 215.333 482.333 216.5 480.5 217C407.166 217.824 333.833 218.657 260.5 219.5C250.833 219.167 241.167 218.833 231.5 218.5C231 217.5 230.5 216.5 230 215.5C229.667 209.5 229.333 203.5 229 197.5C226.676 210.114 220.676 220.448 211 228.5C209.743 228.15 209.409 227.483 210 226.5C226.986 207.507 228.82 187.174 215.5 165.5C215.611 164.883 215.944 164.383 216.5 164C213.325 161.216 212.992 158.382 215.5 155.5C215.296 156.529 215.796 157.529 217 158.5C217.671 157.748 218.504 157.414 219.5 157.5C228.109 168.986 232.775 181.986 233.5 196.5C233.5 198.167 233.5 199.833 233.5 201.5C247.677 201.829 261.677 201.496 275.5 200.5C275.483 198.435 275.15 196.435 274.5 194.5C275.268 193.737 275.768 192.737 276 191.5C276.21 193.058 276.71 194.391 277.5 195.5C278.067 197.03 278.733 198.53 279.5 200C326.833 199.683 374.166 199.016 421.5 198C425.69 195.31 429.024 191.81 431.5 187.5C427.555 186.509 423.555 186.176 419.5 186.5C408.654 186.828 397.987 186.494 387.5 185.5C390.059 185.802 392.393 185.468 394.5 184.5C406.838 184.667 419.171 184.5 431.5 184C433.644 183.208 434.977 181.708 435.5 179.5C436.798 178.884 437.798 178.884 438.5 179.5C438.5 180.167 438.5 180.833 438.5 181.5C437.957 181.56 437.624 181.893 437.5 182.5C443.654 183.817 449.654 183.817 455.5 182.5C463.507 182.666 471.507 182.5 479.5 182C483.371 174.425 487.371 166.925 491.5 159.5C496.642 153.687 502.642 149.02 509.5 145.5C510.222 145.082 510.722 144.416 511 143.5C513.552 145.02 515.718 144.687 517.5 142.5C537.604 137.108 555.938 140.774 572.5 153.5C573.568 154.434 574.901 154.768 576.5 154.5C576.263 153.209 576.596 152.209 577.5 151.5C578.289 151.783 578.956 152.283 579.5 153C584.155 153.499 588.821 153.666 593.5 153.5C599.842 153.666 606.175 153.5 612.5 153C617.085 152.553 620.418 150.386 622.5 146.5C626.757 143.749 630.59 140.416 634 136.5C633.027 131.246 632.694 125.913 633 120.5C634.332 118.34 635.832 116.34 637.5 114.5C638.289 114.217 638.956 113.717 639.5 113C637.527 112.505 635.527 112.338 633.5 112.5C633.631 111.761 633.464 111.094 633 110.5C631.612 111.554 630.112 111.72 628.5 111C630.32 110.8 631.653 109.966 632.5 108.5C637.314 109.427 640.648 107.76 642.5 103.5C642.5 102.167 642.5 100.833 642.5 99.5C644.046 98.1402 645.88 97.1402 648 96.5C649.5 96.6667 650.333 97.5 650.5 99C648.902 102.92 646.902 106.586 644.5 110C645.628 111.468 646.294 113.135 646.5 115C645.833 117.333 645.167 119.667 644.5 122C649.606 130.362 655.106 138.528 661 146.5C661.018 158.419 662.018 170.085 664 181.5C661.363 183.46 658.697 185.46 656 187.5C652.376 192.58 648.876 197.747 645.5 203C638.477 206.567 631.143 208.4 623.5 208.5Z" fill="white"/>
<path fill-rule="evenodd" clip-rule="evenodd" d="M622.5 146.5C620.418 150.386 617.085 152.553 612.5 153C606.175 153.5 599.842 153.666 593.5 153.5C599.319 152.672 605.319 152.172 611.5 152C615.224 151.045 618.557 149.545 621.5 147.5C621.556 144.483 621.89 144.15 622.5 146.5Z" fill="#DC3545"/>
<path fill-rule="evenodd" clip-rule="evenodd" d="M651.5 164.5C644.059 164.771 636.726 165.771 629.5 167.5C630.667 167.833 631.833 168.167 633 168.5C640.822 167.655 648.656 166.988 656.5 166.5C658.051 168.913 658.717 171.579 658.5 174.5C654.821 174.724 651.154 175.058 647.5 175.5C633.478 176.335 619.478 177.502 605.5 179C620.859 179.499 636.192 178.999 651.5 177.5C654.025 177.503 656.359 177.837 658.5 178.5C653.072 182.422 648.072 186.922 643.5 192C641.099 194.062 638.433 195.729 635.5 197C626.174 198.06 616.84 199.06 607.5 200C601.932 202.143 596.266 203.477 590.5 204C590.249 193.248 588.416 182.748 585 172.5C582.265 166.981 579.432 161.647 576.5 156.5C577.552 156.351 578.552 156.517 579.5 157C581.62 159.409 583.62 161.909 585.5 164.5C585.833 164.167 586.167 163.833 586.5 163.5C584.673 161.513 583.673 159.179 583.5 156.5C594.231 156.903 604.898 156.403 615.5 155C623.247 149.924 630.413 144.091 637 137.5C640.508 141.341 644.341 144.841 648.5 148C651.393 149.149 654.393 149.649 657.5 149.5C657.331 154.181 656.998 158.848 656.5 163.5C654.708 163.366 653.042 163.699 651.5 164.5Z" fill="#DC3545"/>
<path fill-rule="evenodd" clip-rule="evenodd" d="M640.5 127.5C641.496 127.414 642.329 127.748 643 128.5C644.934 131.034 646.268 133.701 647 136.5C644.324 133.794 642.158 130.794 640.5 127.5Z" fill="#DC3545"/>
<path fill-rule="evenodd" clip-rule="evenodd" d="M202.5 144.5C202.342 146.821 201.342 148.654 199.5 150C196.843 150.175 194.176 150.008 191.5 149.5C188.763 149.599 186.096 149.265 183.5 148.5C181.866 147.839 180.033 147.506 178 147.5C174.85 147.36 172.017 148.027 169.5 149.5C152.27 154.229 141.104 165.229 136 182.5C132.983 200.121 137.817 215.121 150.5 227.5C149.635 228.583 148.635 228.749 147.5 228C138.74 219.65 133.24 209.483 131 197.5C130.667 202.5 130.333 207.5 130 212.5C129.626 213.416 129.126 214.25 128.5 215C116.775 215.719 105.109 215.219 93.5 213.5C95.6979 212.835 98.0312 212.168 100.5 211.5C98.6021 211.004 97.6021 210.337 97.5 209.5C103.13 210.292 108.797 210.625 114.5 210.5C116.966 211.634 119.633 211.801 122.5 211C121.328 210.581 120.328 209.915 119.5 209C121.058 208.79 122.391 208.29 123.5 207.5C125.298 201.579 126.131 195.246 126 188.5C127.902 178.46 131.568 169.126 137 160.5C141.419 156.251 145.586 151.917 149.5 147.5C149.842 146.662 150.508 146.328 151.5 146.5C168.226 139.293 185.226 138.627 202.5 144.5Z" fill="white"/>
<path fill-rule="evenodd" clip-rule="evenodd" d="M651.5 164.5C653.167 165.167 654.833 165.833 656.5 166.5C648.656 166.988 640.822 167.655 633 168.5C631.833 168.167 630.667 167.833 629.5 167.5C636.726 165.771 644.059 164.771 651.5 164.5Z" fill="#DC3545"/>
<path fill-rule="evenodd" clip-rule="evenodd" d="M647.5 175.5C651.353 176.166 655.353 176.833 659.5 177.5C659.376 178.107 659.043 178.44 658.5 178.5C656.359 177.837 654.025 177.503 651.5 177.5C636.192 178.999 620.859 179.499 605.5 179C619.478 177.502 633.478 176.335 647.5 175.5Z" fill="#DC3545"/>
<path fill-rule="evenodd" clip-rule="evenodd" d="M438.5 181.5C443.975 182.489 449.642 182.822 455.5 182.5C449.654 183.817 443.654 183.817 437.5 182.5C437.624 181.893 437.957 181.56 438.5 181.5Z" fill="#DC3545"/>
<path fill-rule="evenodd" clip-rule="evenodd" d="M394.5 184.5C392.393 185.468 390.059 185.802 387.5 185.5C378.154 185.538 368.82 185.871 359.5 186.5C360.263 185.732 361.263 185.232 362.5 185C373.161 184.5 383.828 184.333 394.5 184.5Z" fill="#DC3545"/>
<path fill-rule="evenodd" clip-rule="evenodd" d="M450.5 205.5C439.167 204.833 427.833 204.167 416.5 203.5C419.913 202.362 423.246 201.029 426.5 199.5C437.581 199.81 448.581 199.477 459.5 198.5C460.043 198.44 460.376 198.107 460.5 197.5C455.014 196.185 449.68 196.185 444.5 197.5C439.305 197.821 434.305 197.487 429.5 196.5C431.616 193.211 433.949 190.044 436.5 187C450.82 186.08 465.154 185.58 479.5 185.5C479.5 192.833 479.5 200.167 479.5 207.5C469.778 207.541 460.112 206.874 450.5 205.5Z" fill="#DC3545"/>
<path fill-rule="evenodd" clip-rule="evenodd" d="M275.5 178.5C276.477 181.287 276.81 184.287 276.5 187.5C295.835 187.253 315.168 186.919 334.5 186.5C315.355 188.057 296.022 188.724 276.5 188.5C275.521 185.375 275.187 182.042 275.5 178.5Z" fill="#DC3545"/>
<path fill-rule="evenodd" clip-rule="evenodd" d="M387.5 185.5C397.987 186.494 408.654 186.828 419.5 186.5C376.33 187.992 332.997 189.325 289.5 190.5C285.167 189.833 280.833 189.167 276.5 188.5C296.022 188.724 315.355 188.057 334.5 186.5C342.833 186.5 351.167 186.5 359.5 186.5C368.82 185.871 378.154 185.538 387.5 185.5Z" fill="#DC3545"/>
<path fill-rule="evenodd" clip-rule="evenodd" d="M419.5 186.5C423.555 186.176 427.555 186.509 431.5 187.5C429.024 191.81 425.69 195.31 421.5 198C374.166 199.016 326.833 199.683 279.5 200C278.733 198.53 278.067 197.03 277.5 195.5C277.5 193.833 277.5 192.167 277.5 190.5C281.5 190.5 285.5 190.5 289.5 190.5C332.997 189.325 376.33 187.992 419.5 186.5Z" fill="#DC3545"/>
<path fill-rule="evenodd" clip-rule="evenodd" d="M463.5 77.5C480.909 81.1856 498.242 85.1856 515.5 89.5C519.222 90.3908 520.722 92.7242 520 96.5C517.079 100.878 513.245 104.211 508.5 106.5C525.445 108.399 542.445 109.399 559.5 109.5C564.975 110.489 570.642 110.822 576.5 110.5C585.009 111.821 593.675 111.821 602.5 110.5C601.332 108.783 599.665 108.116 597.5 108.5C596.833 108.5 596.167 108.5 595.5 108.5C592.543 107.345 589.543 106.345 586.5 105.5C584.485 104.076 582.152 103.41 579.5 103.5C562.922 99.276 546.588 94.6093 530.5 89.5C532.75 89.8186 534.75 89.3186 536.5 88C535.244 87.5831 534.577 86.7498 534.5 85.5C537.817 86.4967 541.15 87.4967 544.5 88.5C546.042 89.3007 547.708 89.634 549.5 89.5C551.515 90.9238 553.848 91.5905 556.5 91.5C561.9 93.7412 567.567 95.4078 573.5 96.5C588.187 101.965 603.354 105.965 619 108.5C621.167 108.333 623.333 108.167 625.5 108C630.363 103.568 636.03 100.735 642.5 99.5C642.5 100.833 642.5 102.167 642.5 103.5C638.938 103.965 635.605 105.132 632.5 107C631.262 107.69 631.262 108.19 632.5 108.5C631.653 109.966 630.32 110.8 628.5 111C630.112 111.72 631.612 111.554 633 110.5C633.464 111.094 633.631 111.761 633.5 112.5C619.215 113.466 604.882 113.8 590.5 113.5C570.162 112.579 549.829 111.413 529.5 110C502.802 109.087 476.136 109.587 449.5 111.5C451.132 115.09 452.466 118.757 453.5 122.5C454.394 126.28 454.727 129.947 454.5 133.5C453.715 138.213 452.715 142.879 451.5 147.5C458.233 149.361 464.9 151.528 471.5 154C475.5 154.667 479.5 154.667 483.5 154C492.135 149.014 500.801 144.014 509.5 139C516.942 135.579 524.775 134.079 533 134.5C550.474 133.816 565.308 139.483 577.5 151.5C576.596 152.209 576.263 153.209 576.5 154.5C574.901 154.768 573.568 154.434 572.5 153.5C573.552 153.649 574.552 153.483 575.5 153C560.579 140.143 543.245 135.143 523.5 138C519.448 138.627 515.782 140.127 512.5 142.5C513 142.833 513.5 143.167 514 143.5C515.138 143.011 516.305 142.678 517.5 142.5C515.718 144.687 513.552 145.02 511 143.5C510.722 144.416 510.222 145.082 509.5 145.5C509.53 144.503 509.03 143.836 508 143.5C501.737 146.619 495.904 150.285 490.5 154.5C484.703 158.239 478.37 159.405 471.5 158C464.57 155.246 457.57 152.912 450.5 151C446.772 160.706 442.772 170.206 438.5 179.5C437.798 178.884 436.798 178.884 435.5 179.5C440.017 169.466 443.684 159.133 446.5 148.5C441.486 147.831 436.486 146.997 431.5 146C407.169 145.5 382.836 145.333 358.5 145.5C384.5 144.833 410.5 144.167 436.5 143.5C440.507 144.613 444.507 144.613 448.5 143.5C450.124 139.299 451.124 134.966 451.5 130.5C391.817 130.939 332.15 132.105 272.5 134C271.182 137.269 271.182 140.435 272.5 143.5C282.659 144.33 292.992 144.83 303.5 145C297.919 145.15 292.586 145.983 287.5 147.5C282.5 147.5 277.5 147.5 272.5 147.5C272.517 157.932 273.517 168.266 275.5 178.5C275.187 182.042 275.521 185.375 276.5 188.5C280.833 189.167 285.167 189.833 289.5 190.5C285.5 190.5 281.5 190.5 277.5 190.5C277.5 192.167 277.5 193.833 277.5 195.5C276.71 194.391 276.21 193.058 276 191.5C275.768 192.737 275.268 193.737 274.5 194.5C273.728 193.306 272.728 192.306 271.5 191.5C269.833 190.833 268.167 190.167 266.5 189.5C268.467 189.739 270.301 189.406 272 188.5C272.167 186 272.333 183.5 272.5 181C271.369 170.27 270.035 159.604 268.5 149C258.833 148.333 249.167 148.333 239.5 149C234.56 150.925 229.56 152.759 224.5 154.5C222.701 154.423 221.034 153.923 219.5 153C216.521 149.177 212.854 146.344 208.5 144.5C207.068 144.733 206.568 145.4 207 146.5C211.953 149.288 216.12 152.954 219.5 157.5C218.504 157.414 217.671 157.748 217 158.5C215.796 157.529 215.296 156.529 215.5 155.5C212.992 158.382 213.325 161.216 216.5 164C215.944 164.383 215.611 164.883 215.5 165.5C208.795 158.111 200.795 152.778 191.5 149.5C194.176 150.008 196.843 150.175 199.5 150C201.342 148.654 202.342 146.821 202.5 144.5C204.337 144.361 204.67 143.694 203.5 142.5C195.693 139.171 187.526 137.838 179 138.5C169.616 137.721 160.783 139.555 152.5 144C151.748 144.671 151.414 145.504 151.5 146.5C150.508 146.328 149.842 146.662 149.5 147.5C148.85 147.196 148.183 146.863 147.5 146.5C142.22 150.278 137.386 154.611 133 159.5C132.333 158.5 132.333 157.5 133 156.5C137.016 152.652 140.849 148.652 144.5 144.5C143.833 143.167 142.833 142.167 141.5 141.5C135.64 145.925 129.64 150.091 123.5 154C111.202 156.824 98.869 159.491 86.5 162C82.0747 166.898 80.0747 172.732 80.5 179.5C84.0101 179.332 87.5101 178.999 91 178.5C93.9989 178.481 96.8322 179.148 99.5 180.5C104.693 187.193 109.693 194.026 114.5 201C105.584 200.558 96.584 200.392 87.5 200.5C87.5 197.167 87.5 193.833 87.5 190.5C85.2075 190.244 83.0408 190.577 81 191.5C80.5008 196.155 80.3342 200.821 80.5 205.5C94.8787 205.315 109.212 205.982 123.5 207.5C122.391 208.29 121.058 208.79 119.5 209C120.328 209.915 121.328 210.581 122.5 211C119.633 211.801 116.966 211.634 114.5 210.5C112.736 208.901 109.403 208.234 104.5 208.5C101.975 208.503 99.6413 208.837 97.5 209.5C97.6021 210.337 98.6021 211.004 100.5 211.5C98.0312 212.168 95.6979 212.835 93.5 213.5C86.4719 212.993 79.4719 212.16 72.5 211C71.4258 210.261 70.7591 209.261 70.5 208C72.6658 205.808 74.4991 203.308 76 200.5C77.427 194.189 77.2603 188.022 75.5 182C75.8342 175.99 77.0009 170.157 79 164.5C79.4137 157.143 79.4137 149.81 79 142.5C87.8365 135.495 97.6698 130.162 108.5 126.5C109.659 127.74 110.659 129.074 111.5 130.5C104.311 132.507 97.4776 135.507 91 139.5C90.5172 140.448 90.3505 141.448 90.5 142.5C106.571 138.293 122.904 136.46 139.5 137C142.054 139.063 144.72 140.897 147.5 142.5C153.488 140.335 159.488 138.168 165.5 136C187.806 132.031 207.472 137.198 224.5 151.5C238.47 145.079 253.136 142.746 268.5 144.5C268.5 141.167 268.5 137.833 268.5 134.5C207.19 134.165 207.19 133.165 268.5 131.5C268.491 129.692 268.991 128.025 270 126.5C271.277 124.253 272.777 122.253 274.5 120.5C275.167 121.167 275.833 121.833 276.5 122.5C274.975 124.216 273.975 126.216 273.5 128.5C272.596 129.209 272.263 130.209 272.5 131.5C277.695 131.821 282.695 131.487 287.5 130.5C342.169 130.024 396.836 129.357 451.5 128.5C451.256 123.933 450.09 119.599 448 115.5C447.5 113.667 446.333 112.5 444.5 112C430.837 111.5 417.171 111.333 403.5 111.5C415.993 110.669 428.66 110.169 441.5 110C440.833 109.333 440.167 108.667 439.5 108C435.848 107.501 432.182 107.335 428.5 107.5C428.5 107.167 428.5 106.833 428.5 106.5C432.514 106.666 436.514 106.499 440.5 106C441.308 105.692 441.975 105.192 442.5 104.5C444.661 97.5291 447.328 90.8624 450.5 84.5C451.365 84.5639 452.365 84.8973 453.5 85.5C451.55 90.4011 449.883 95.4011 448.5 100.5C447.262 102.214 446.595 104.214 446.5 106.5C458.666 106.052 470.666 105.386 482.5 104.5C484.5 104.5 486.5 104.5 488.5 104.5C493.822 103.971 499.156 103.471 504.5 103C505.416 102.722 506.082 102.222 506.5 101.5C509.643 100.866 512.143 99.1998 514 96.5C514.456 95.2559 513.956 94.4226 512.5 94C496.236 89.6789 479.902 85.6789 463.5 82C460.854 81.5026 458.187 81.3359 455.5 81.5C457.698 80.8347 460.031 80.1681 462.5 79.5C462.863 78.8165 463.196 78.1499 463.5 77.5Z" fill="white"/>
<path fill-rule="evenodd" clip-rule="evenodd" d="M266.5 189.5C268.167 190.167 269.833 190.833 271.5 191.5C264.137 191.831 256.803 191.497 249.5 190.5C255.128 189.505 260.794 189.171 266.5 189.5Z" fill="#DC3545"/>
<path fill-rule="evenodd" clip-rule="evenodd" d="M86.5 187.5C88.6074 186.532 90.9407 186.198 93.5 186.5C93.5 190.5 93.5 194.5 93.5 198.5C92.5 198.5 91.5 198.5 90.5 198.5C90.665 195.15 90.4983 191.817 90 188.5C88.9887 187.663 87.8221 187.33 86.5 187.5Z" fill="#DC3545"/>
<path fill-rule="evenodd" clip-rule="evenodd" d="M96.5004 186.5C98.1996 186.34 99.8663 186.506 101.5 187C104.978 190.299 107.978 193.966 110.5 198C105.845 198.499 101.179 198.666 96.5004 198.5C95.4361 194.441 95.4361 190.441 96.5004 186.5Z" fill="#DC3545"/>
<path fill-rule="evenodd" clip-rule="evenodd" d="M88.5 180.5C91.5184 180.335 94.5184 180.502 97.5 181C97.9574 181.414 98.2907 181.914 98.5 182.5C93.533 183.662 88.533 183.829 83.5 183C85.1749 182.015 86.8415 181.181 88.5 180.5Z" fill="#DC3545"/>
<path fill-rule="evenodd" clip-rule="evenodd" d="M84.5001 146.5C86.7926 146.244 88.9593 146.577 91.0001 147.5C92.0368 150.276 92.8701 153.11 93.5001 156C93.2452 157.326 92.5785 158.326 91.5001 159C89.1903 159.497 86.8569 159.663 84.5001 159.5C83.3047 155.12 83.3047 150.787 84.5001 146.5Z" fill="#DC3545"/>
<path fill-rule="evenodd" clip-rule="evenodd" d="M104.5 144.5C107.119 146.703 108.119 149.369 107.5 152.5C105.337 150.353 104.337 147.686 104.5 144.5Z" fill="#DC3545"/>
<path fill-rule="evenodd" clip-rule="evenodd" d="M99.4997 145.5C101.928 147.619 103.095 150.286 103 153.5C100.466 151.431 99.2988 148.765 99.4997 145.5Z" fill="#DC3545"/>
<path fill-rule="evenodd" clip-rule="evenodd" d="M95.5 147.5C97.7082 148.918 98.5415 150.918 98 153.5C96.3375 151.842 95.5041 149.842 95.5 147.5Z" fill="#DC3545"/>
<path fill-rule="evenodd" clip-rule="evenodd" d="M572.5 153.5C555.938 140.774 537.604 137.108 517.5 142.5C516.305 142.678 515.138 143.011 514 143.5C513.5 143.167 513 142.833 512.5 142.5C515.782 140.127 519.448 138.627 523.5 138C543.245 135.143 560.579 140.143 575.5 153C574.552 153.483 573.552 153.649 572.5 153.5Z" fill="#DC3545"/>
<path fill-rule="evenodd" clip-rule="evenodd" d="M183.5 148.5C178.797 148.437 174.13 148.771 169.5 149.5C172.017 148.027 174.85 147.36 178 147.5C180.033 147.506 181.866 147.839 183.5 148.5Z" fill="#DC3545"/>
<path fill-rule="evenodd" clip-rule="evenodd" d="M527.5 147.5C533.319 146.347 539.319 146.181 545.5 147C547.723 147.566 549.723 148.4 551.5 149.5C543.603 147.839 535.603 147.173 527.5 147.5Z" fill="#DC3545"/>
<path fill-rule="evenodd" clip-rule="evenodd" d="M272.5 143.5C284.5 143.5 296.5 143.5 308.5 143.5C307.391 144.29 306.058 144.79 304.5 145C320.163 145.5 335.83 145.667 351.5 145.5C330.333 146.387 308.999 147.054 287.5 147.5C292.586 145.983 297.919 145.15 303.5 145C292.992 144.83 282.659 144.33 272.5 143.5Z" fill="#DC3545"/>
<path fill-rule="evenodd" clip-rule="evenodd" d="M115.5 142.5C116.833 142.5 118.167 142.5 119.5 142.5C117.808 148.888 116.475 148.888 115.5 142.5Z" fill="#DC3545"/>
<path fill-rule="evenodd" clip-rule="evenodd" d="M109.5 142.5C111.124 142.36 112.29 143.027 113 144.5C113.893 152.636 112.56 153.303 109 146.5C108.421 145.072 108.588 143.738 109.5 142.5Z" fill="#DC3545"/>
<path fill-rule="evenodd" clip-rule="evenodd" d="M436.5 143.5C410.5 144.167 384.5 144.833 358.5 145.5C356.167 145.5 353.833 145.5 351.5 145.5C335.83 145.667 320.163 145.5 304.5 145C306.058 144.79 307.391 144.29 308.5 143.5C351.202 141.077 393.869 141.077 436.5 143.5Z" fill="white"/>
<path fill-rule="evenodd" clip-rule="evenodd" d="M85.4998 142.5C86.3762 142.369 87.0429 142.702 87.4998 143.5C85.1914 144.873 84.5247 144.54 85.4998 142.5Z" fill="#DC3545"/>
<path fill-rule="evenodd" clip-rule="evenodd" d="M128.5 140.5C130.288 140.215 131.955 140.548 133.5 141.5C129.899 146.516 125.232 149.183 119.5 149.5C120.305 147.085 121.305 144.751 122.5 142.5C124.631 141.831 126.631 141.165 128.5 140.5Z" fill="#DC3545"/>
<path fill-rule="evenodd" clip-rule="evenodd" d="M202.5 144.5C185.226 138.627 168.226 139.293 151.5 146.5C151.414 145.504 151.748 144.671 152.5 144C160.783 139.555 169.616 137.721 179 138.5C187.526 137.838 195.693 139.171 203.5 142.5C204.67 143.694 204.337 144.361 202.5 144.5Z" fill="#DC3545"/>
<path fill-rule="evenodd" clip-rule="evenodd" d="M436.5 143.5C393.869 141.077 351.202 141.077 308.5 143.5C296.5 143.5 284.5 143.5 272.5 143.5C271.182 140.435 271.182 137.269 272.5 134C332.15 132.105 391.817 130.939 451.5 130.5C451.124 134.966 450.124 139.299 448.5 143.5C444.507 144.613 440.507 144.613 436.5 143.5Z" fill="#DC3545"/>
<path fill-rule="evenodd" clip-rule="evenodd" d="M273.5 128.5C277.715 130.436 282.381 131.103 287.5 130.5C282.695 131.487 277.695 131.821 272.5 131.5C272.263 130.209 272.596 129.209 273.5 128.5Z" fill="#DC3545"/>
<path fill-rule="evenodd" clip-rule="evenodd" d="M597.5 108.5C599.665 108.116 601.332 108.783 602.5 110.5C593.675 111.821 585.009 111.821 576.5 110.5C584.507 110.666 592.507 110.5 600.5 110C599.263 109.768 598.263 109.268 597.5 108.5Z" fill="#DC3545"/>
<path fill-rule="evenodd" clip-rule="evenodd" d="M595.5 108.5C596.167 108.5 596.833 108.5 597.5 108.5C598.263 109.268 599.263 109.768 600.5 110C592.507 110.5 584.507 110.666 576.5 110.5C570.642 110.822 564.975 110.489 559.5 109.5C571.678 109.828 583.678 109.495 595.5 108.5Z" fill="#DC3545"/>
<path fill-rule="evenodd" clip-rule="evenodd" d="M448.5 100.5C448.33 101.822 448.663 102.989 449.5 104C460.495 104.5 471.495 104.667 482.5 104.5C470.666 105.386 458.666 106.052 446.5 106.5C446.595 104.214 447.262 102.214 448.5 100.5Z" fill="#DC3545"/>
<path fill-rule="evenodd" clip-rule="evenodd" d="M579.5 103.5C582.152 103.41 584.485 104.076 586.5 105.5C583.848 105.59 581.515 104.924 579.5 103.5Z" fill="#DC3545"/>
<path fill-rule="evenodd" clip-rule="evenodd" d="M506.5 101.5C506.082 102.222 505.416 102.722 504.5 103C499.156 103.471 493.822 103.971 488.5 104.5C494.129 102.062 500.129 101.062 506.5 101.5Z" fill="#DC3545"/>
<path fill-rule="evenodd" clip-rule="evenodd" d="M517.5 86.5C519.565 86.5172 521.565 86.8505 523.5 87.5C525.515 88.9238 527.848 89.5905 530.5 89.5C546.588 94.6093 562.922 99.276 579.5 103.5C581.515 104.924 583.848 105.59 586.5 105.5C589.543 106.345 592.543 107.345 595.5 108.5C583.678 109.495 571.678 109.828 559.5 109.5C542.445 109.399 525.445 108.399 508.5 106.5C513.245 104.211 517.079 100.878 520 96.5C520.722 92.7242 519.222 90.3908 515.5 89.5C515.082 88.7784 514.416 88.2784 513.5 88C514.901 87.5899 516.234 87.0899 517.5 86.5Z" fill="#DC3545"/>
<path fill-rule="evenodd" clip-rule="evenodd" d="M523.5 87.5003C526.152 87.4098 528.485 88.0765 530.5 89.5003C527.848 89.5908 525.515 88.9241 523.5 87.5003Z" fill="#DC3545"/>
<path fill-rule="evenodd" clip-rule="evenodd" d="M444.5 197.5C449.68 196.185 455.014 196.185 460.5 197.5C460.376 198.107 460.043 198.44 459.5 198.5C454.695 197.513 449.695 197.179 444.5 197.5Z" fill="#DC3545"/>
<path fill-rule="evenodd" clip-rule="evenodd" d="M429.5 196.5C434.305 197.487 439.305 197.821 444.5 197.5C449.695 197.179 454.695 197.513 459.5 198.5C448.581 199.477 437.581 199.81 426.5 199.5C427.167 198.167 428.167 197.167 429.5 196.5Z" fill="#DC3545"/>
<path fill-rule="evenodd" clip-rule="evenodd" d="M233.5 196.5C234.434 197.568 234.768 198.901 234.5 200.5C248.167 200.5 261.833 200.5 275.5 200.5C261.677 201.496 247.677 201.829 233.5 201.5C233.5 199.833 233.5 198.167 233.5 196.5Z" fill="#DC3545"/>
<path fill-rule="evenodd" clip-rule="evenodd" d="M643.5 194.5C644.376 194.369 645.043 194.702 645.5 195.5C643.924 199.54 640.924 201.707 636.5 202C622.171 204.029 607.837 205.696 593.5 207C606.484 202.725 619.818 200.391 633.5 200C637.627 199.44 640.96 197.607 643.5 194.5Z" fill="#DC3545"/>
<path fill-rule="evenodd" clip-rule="evenodd" d="M279.5 206.5C279.833 207.167 280.167 207.833 280.5 208.5C279.5 208.5 278.5 208.5 277.5 208.5C269.16 208.334 260.827 208.5 252.5 209C251.263 209.232 250.263 209.732 249.5 210.5C244.562 211.392 239.562 211.726 234.5 211.5C234.5 209.167 234.5 206.833 234.5 204.5C248.837 204.333 263.171 204.5 277.5 205C278.044 205.717 278.711 206.217 279.5 206.5Z" fill="#DC3545"/>
<path fill-rule="evenodd" clip-rule="evenodd" d="M416.5 203.5C427.833 204.167 439.167 204.833 450.5 205.5C429.5 205.5 408.5 205.5 387.5 205.5C384.941 205.802 382.607 205.468 380.5 204.5C392.513 204.539 404.513 204.206 416.5 203.5Z" fill="#DC3545"/>
<path fill-rule="evenodd" clip-rule="evenodd" d="M380.5 204.5C382.607 205.468 384.941 205.802 387.5 205.5C352.007 207 316.341 208 280.5 208.5C280.167 207.833 279.833 207.167 279.5 206.5C313.179 206.395 346.846 205.729 380.5 204.5Z" fill="#DC3545"/>
<path fill-rule="evenodd" clip-rule="evenodd" d="M277.5 208.5C268.318 209.276 258.985 209.942 249.5 210.5C250.263 209.732 251.263 209.232 252.5 209C260.827 208.5 269.16 208.334 277.5 208.5Z" fill="#DC3545"/>
<path fill-rule="evenodd" clip-rule="evenodd" d="M97.5 209.5C99.6413 208.837 101.975 208.503 104.5 208.5C109.403 208.234 112.736 208.901 114.5 210.5C108.797 210.625 103.13 210.292 97.5 209.5Z" fill="#DC3545"/>
<path fill-rule="evenodd" clip-rule="evenodd" d="M292.5 214.5C277.99 214.829 263.657 214.496 249.5 213.5C258.652 212.947 267.652 212.28 276.5 211.5C325.16 210.293 373.826 209.293 422.5 208.5C441.207 208.367 459.874 209.034 478.5 210.5C478.5 211.5 478.5 212.5 478.5 213.5C416.498 213.597 354.498 213.931 292.5 214.5Z" fill="#DC3545"/>
<path fill-rule="evenodd" clip-rule="evenodd" d="M623.5 208.5C619.081 209.972 614.414 210.638 609.5 210.5C613.919 209.028 618.586 208.362 623.5 208.5Z" fill="#DC3545"/>
<path fill-rule="evenodd" clip-rule="evenodd" d="M276.5 211.5C267.652 212.28 258.652 212.947 249.5 213.5C250.263 212.732 251.263 212.232 252.5 212C260.493 211.5 268.493 211.334 276.5 211.5Z" fill="#DC3545"/>
<path fill-rule="evenodd" clip-rule="evenodd" d="M249.5 213.5C263.657 214.496 277.99 214.829 292.5 214.5C277.661 215.826 262.661 215.826 247.5 214.5C247.957 213.702 248.624 213.369 249.5 213.5Z" fill="#DC3545"/>
</svg>
