<svg width="736" height="736" viewBox="0 0 736 736" fill="none" xmlns="http://www.w3.org/2000/svg">
<path fill-rule="evenodd" clip-rule="evenodd" d="M377.5 281.5C403.931 280.766 430.265 281.932 456.5 285C474.305 288.379 491.971 292.379 509.5 297C543.107 307.202 576.774 317.202 610.5 327C615.5 327.667 620.5 327.667 625.5 327C632.805 321.679 640.805 318.012 649.5 316C650.517 317.049 650.684 318.216 650 319.5C648.539 322.928 646.705 326.095 644.5 329C645.309 330.784 645.976 332.617 646.5 334.5C644.271 338.116 644.104 341.782 646 345.5C651.385 351.884 656.385 358.55 661 365.5C660.794 376.205 661.96 386.705 664.5 397C664.397 398.561 664.063 400.061 663.5 401.5C656.424 405.751 651.257 411.751 648 419.5C646.457 421.378 644.624 422.878 642.5 424C624.334 427.796 606.001 430.129 587.5 431C586.874 430.25 586.374 429.416 586 428.5C585.667 424.5 585.333 420.5 585 416.5C582.4 427.202 577.566 436.702 570.5 445C568.99 445.85 567.49 446.683 566 447.5C565.5 447.167 565 446.833 564.5 446.5C583.196 427.229 585.363 406.229 571 383.5C556.326 367.372 538.493 362.538 517.5 369C495.14 380.553 486.307 398.72 491 423.5C493.245 432.076 497.578 439.409 504 445.5C504.591 446.483 504.257 447.15 503 447.5C492.891 439.296 486.891 428.63 485 415.5C484.667 421.167 484.333 426.833 484 432.5C483.07 434.552 481.57 436.052 479.5 437C406.498 437.268 333.498 437.768 260.5 438.5C250.833 438.167 241.167 437.833 231.5 437.5C231.192 436.692 230.692 436.025 230 435.5C229.667 429.5 229.333 423.5 229 417.5C226.537 429.782 220.537 439.782 211 447.5C210.5 447.167 210 446.833 209.5 446.5C226.697 427.721 228.864 407.388 216 385.5C197.398 365.305 176.231 362.138 152.5 376C133.811 393.44 130.311 413.607 142 436.5C144.692 439.692 147.192 443.025 149.5 446.5C149.167 446.833 148.833 447.167 148.5 447.5C138.825 439.826 132.992 429.826 131 417.5C130.667 422.5 130.333 427.5 130 432.5C129.5 433 129 433.5 128.5 434C109.706 434.545 91.0401 433.212 72.5004 430C69.6562 426.527 70.4895 424.027 75.0004 422.5C77.2245 415.216 77.3911 408.05 75.5004 401C75.7445 395.281 76.9111 389.781 79.0004 384.5C79.4289 376.809 79.4289 369.143 79.0004 361.5C92.6517 352.051 107.485 344.884 123.5 340C138.653 336.379 153.987 333.713 169.5 332C193.285 329.734 217.119 328.234 241 327.5C248.61 327.602 256.11 328.102 263.5 329C289.52 316.299 315.52 303.632 341.5 291C353.201 286.243 365.201 283.076 377.5 281.5Z" fill="white"/>
<path fill-rule="evenodd" clip-rule="evenodd" d="M417.5 422.5C428.167 423.167 438.833 423.833 449.5 424.5C428.833 424.5 408.167 424.5 387.5 424.5C386.508 424.672 385.842 424.338 385.5 423.5C396.167 423.167 406.833 422.833 417.5 422.5Z" fill="#DC3545"/>
<path fill-rule="evenodd" clip-rule="evenodd" d="M281.5 426.5C281.5 426.833 281.5 427.167 281.5 427.5C273.493 427.334 265.493 427.5 257.5 428C249.848 429.387 242.181 430.553 234.5 431.5C234.232 428.881 234.565 426.381 235.5 424C249.5 423.333 263.5 423.333 277.5 424C278.471 425.481 279.804 426.315 281.5 426.5Z" fill="#DC3545"/>
<path fill-rule="evenodd" clip-rule="evenodd" d="M643.5 413.5C644.376 413.369 645.043 413.702 645.5 414.5C644.191 418.307 641.524 420.474 637.5 421C622.873 423.329 608.207 424.996 593.5 426C606.543 422.142 619.877 419.809 633.5 419C637.607 418.371 640.94 416.537 643.5 413.5Z" fill="#DC3545"/>
<path fill-rule="evenodd" clip-rule="evenodd" d="M81.5001 410.5C81.5001 414.833 81.5001 419.167 81.5001 423.5C82.7911 423.263 83.7911 423.596 84.5001 424.5C83.1668 424.5 81.8334 424.5 80.5001 424.5C80.1806 419.637 80.514 414.97 81.5001 410.5Z" fill="#DC3545"/>
<path fill-rule="evenodd" clip-rule="evenodd" d="M429.5 415.5C439.659 416.33 449.992 416.83 460.5 417C454.621 418.41 448.621 418.91 442.5 418.5C437.983 417.834 433.317 417.167 428.5 416.5C428.624 415.893 428.957 415.56 429.5 415.5Z" fill="#DC3545"/>
<path fill-rule="evenodd" clip-rule="evenodd" d="M276.5 407.5C284.167 407.5 291.833 407.5 299.5 407.5C301.607 408.468 303.941 408.802 306.5 408.5C302.366 409.485 298.032 409.818 293.5 409.5C287.833 408.833 282.167 408.167 276.5 407.5Z" fill="#DC3545"/>
<path fill-rule="evenodd" clip-rule="evenodd" d="M419.5 406.5C423.371 406.185 427.038 406.518 430.5 407.5C428.402 411.434 425.402 414.6 421.5 417C374.179 418.778 326.846 419.444 279.5 419C277.924 416.049 277.257 412.883 277.5 409.5C282.833 409.5 288.167 409.5 293.5 409.5C298.032 409.818 302.366 409.485 306.5 408.5C344.162 407.583 381.829 406.917 419.5 406.5Z" fill="#DC3545"/>
<path fill-rule="evenodd" clip-rule="evenodd" d="M96.4995 406.5C98.5268 406.338 100.527 406.505 102.5 407C105.167 410.333 107.833 413.667 110.5 417C105.748 417.773 101.081 417.607 96.4995 416.5C95.409 413.015 95.409 409.681 96.4995 406.5Z" fill="#DC3545"/>
<path fill-rule="evenodd" clip-rule="evenodd" d="M86.5 406.5C88.6074 405.532 90.9407 405.198 93.5 405.5C93.5 409.5 93.5 413.5 93.5 417.5C92.5 417.5 91.5 417.5 90.5 417.5C90.665 414.15 90.4983 410.817 90 407.5C88.9887 406.663 87.8221 406.33 86.5 406.5Z" fill="#DC3545"/>
<path fill-rule="evenodd" clip-rule="evenodd" d="M449.5 424.5C438.833 423.833 428.167 423.167 417.5 422.5C425.369 418.832 433.702 417.499 442.5 418.5C448.621 418.91 454.621 418.41 460.5 417C449.992 416.83 439.659 416.33 429.5 415.5C431.702 412.274 434.035 409.107 436.5 406C450.829 405.5 465.163 405.333 479.5 405.5C479.5 412.5 479.5 419.5 479.5 426.5C469.464 426.329 459.464 425.662 449.5 424.5Z" fill="#DC3545"/>
<path fill-rule="evenodd" clip-rule="evenodd" d="M419.5 406.5C423.351 405.191 427.351 405.191 431.5 406.5C431.376 407.107 431.043 407.44 430.5 407.5C427.038 406.518 423.371 406.185 419.5 406.5Z" fill="#DC3545"/>
<path fill-rule="evenodd" clip-rule="evenodd" d="M107.5 419.5C103.558 419.125 99.8909 418.125 96.5 416.5C101.081 417.607 105.748 417.773 110.5 417C107.833 413.667 105.167 410.333 102.5 407C100.527 406.505 98.5273 406.338 96.5 406.5C97.0906 405.849 97.7573 405.182 98.5 404.5C94.3525 403.833 90.3525 403.166 86.5 402.5C90.5546 402.824 94.5546 402.491 98.5 401.5C97.9747 400.808 97.3081 400.308 96.5 400C93.854 399.503 91.1873 399.336 88.5 399.5C87.209 399.737 86.209 399.404 85.5 398.5C89.7407 397.182 94.074 397.348 98.5 399C105.007 405.795 110.174 413.295 114 421.5C112.211 419.771 110.044 419.104 107.5 419.5Z" fill="#DC3545"/>
<path fill-rule="evenodd" clip-rule="evenodd" d="M88.5 399.5C91.1873 399.336 93.854 399.503 96.5 400C97.3081 400.308 97.9747 400.808 98.5 401.5C94.5546 402.491 90.5546 402.824 86.5 402.5C85.1266 402.657 83.7932 402.49 82.5 402C84.5018 400.981 86.5018 400.148 88.5 399.5Z" fill="#DC3545"/>
<path fill-rule="evenodd" clip-rule="evenodd" d="M84.5 378.5C86.1667 378.5 87.8333 378.5 89.5 378.5C90.5676 379.434 91.901 379.768 93.5 379.5C92.0813 380.451 90.4147 380.784 88.5 380.5C87.1667 379.833 85.8333 379.167 84.5 378.5Z" fill="#DC3545"/>
<path fill-rule="evenodd" clip-rule="evenodd" d="M85.0011 424C84.2921 423.096 83.2921 422.763 82.0011 423C82.0011 418.667 82.0011 414.333 82.0011 410C83.8803 409.159 85.8803 408.825 88.0011 409C87.7119 412.606 88.0453 416.106 89.0011 419.5C95.3192 419.487 101.652 419.321 108.001 419C110.545 418.604 112.712 419.271 114.501 421C110.675 412.795 105.508 405.295 99.0011 398.5C94.5751 396.848 90.2418 396.682 86.0011 398C84.3344 398 82.6678 398 81.0011 398C80.9597 392.705 82.1264 387.705 84.5011 383C85.6301 381.359 87.1301 380.359 89.0011 380C90.9158 380.284 92.5824 379.951 94.0011 379C112.416 378.413 128.416 372.08 142.001 360C143.334 360.667 144.334 361.667 145.001 363C141.683 366.818 138.183 370.485 134.501 374C133.519 375.259 133.186 376.592 133.501 378C137.368 373.798 141.534 369.965 146.001 366.5C147.445 365.719 148.778 365.886 150.001 367C131.813 382.393 123.813 402.06 126.001 426C112.26 425.664 98.5934 424.998 85.0011 424Z" fill="#DC3545"/>
<path fill-rule="evenodd" clip-rule="evenodd" d="M507.5 362.5C509.028 362.517 509.528 363.184 509 364.5C502.46 368.033 496.794 372.7 492 378.5C487.424 385.822 483.258 393.322 479.5 401C465.836 401.639 452.169 402.139 438.5 402.5C441.998 391.51 445.998 380.677 450.5 370C457.526 371.898 464.526 374.231 471.5 377C475.5 377.667 479.5 377.667 483.5 377C491.671 372.303 499.671 367.47 507.5 362.5Z" fill="#DC3545"/>
<path fill-rule="evenodd" clip-rule="evenodd" d="M207.5 363.5C213.383 366.542 218.883 370.208 224 374.5C229.454 372.189 234.954 370.022 240.5 368C249.833 367.333 259.167 367.333 268.5 368C270.858 381.035 272.024 394.202 272 407.5C264.519 408.131 257.019 408.964 249.5 410C257.167 410.333 264.833 410.667 272.5 411C274.731 413.748 275.731 416.915 275.5 420.5C261.5 420.5 247.5 420.5 233.5 420.5C234.125 397.157 225.125 378.657 206.5 365C207.056 364.617 207.389 364.117 207.5 363.5Z" fill="#DC3545"/>
<path fill-rule="evenodd" clip-rule="evenodd" d="M99.5003 364.5C102.119 366.703 103.119 369.369 102.5 372.5C100.377 370.255 99.3776 367.588 99.5003 364.5Z" fill="#DC3545"/>
<path fill-rule="evenodd" clip-rule="evenodd" d="M95.5 366.5C97.7082 367.918 98.5415 369.918 98 372.5C96.3375 370.842 95.5041 368.842 95.5 366.5Z" fill="#DC3545"/>
<path fill-rule="evenodd" clip-rule="evenodd" d="M103.5 364.5C104.189 363.226 105.023 363.226 106 364.5C107.523 366.83 108.023 369.164 107.5 371.5C105.79 369.357 104.457 367.023 103.5 364.5Z" fill="#DC3545"/>
<path fill-rule="evenodd" clip-rule="evenodd" d="M89.5004 378.5C87.8337 378.5 86.1671 378.5 84.5004 378.5C83.7283 374.548 83.395 370.548 83.5004 366.5C86.1671 366.5 88.8337 366.5 91.5004 366.5C92.0583 369.344 92.7249 372.178 93.5004 375C93.1781 377.327 91.8448 378.494 89.5004 378.5Z" fill="#DC3545"/>
<path fill-rule="evenodd" clip-rule="evenodd" d="M299.5 407.5C291.833 407.5 284.167 407.5 276.5 407.5C274.872 394.006 273.539 380.34 272.5 366.5C314.338 366.201 356.172 365.535 398 364.5C411.187 364.517 424.354 365.017 437.5 366C440.43 366.606 443.263 367.44 446 368.5C443.463 379.931 439.463 390.931 434 401.5C433.25 402.126 432.416 402.626 431.5 403C387.493 404.399 343.493 405.899 299.5 407.5Z" fill="#DC3545"/>
<path fill-rule="evenodd" clip-rule="evenodd" d="M108.5 362.5C110.144 362.286 111.644 362.62 113 363.5C113.814 365.902 113.647 368.235 112.5 370.5C110.113 368.393 108.78 365.727 108.5 362.5Z" fill="#DC3545"/>
<path fill-rule="evenodd" clip-rule="evenodd" d="M610.5 397.5C608.396 397.201 606.396 397.534 604.5 398.5C609.986 399.815 615.32 399.815 620.5 398.5C633.15 397.365 645.817 396.865 658.5 397C651.462 403.707 644.128 410.04 636.5 416C620.93 417.452 605.596 419.785 590.5 423C590.373 409.116 587.206 395.95 581 383.5C579.257 381.679 577.757 379.679 576.5 377.5C577.723 376.386 579.056 376.219 580.5 377C582.046 379.257 583.712 381.424 585.5 383.5C585.833 383.167 586.167 382.833 586.5 382.5C584.673 380.513 583.673 378.179 583.5 375.5C592.839 375.666 602.173 375.5 611.5 375C613.878 374.489 616.212 373.822 618.5 373C624.761 367.617 630.927 362.117 637 356.5C640.167 359.667 643.333 362.833 646.5 366C649.923 367.904 653.59 368.737 657.5 368.5C657.331 373.181 656.998 377.848 656.5 382.5C647.496 383.778 638.496 385.112 629.5 386.5C630.667 386.833 631.833 387.167 633 387.5C640.353 386.911 647.687 386.244 655 385.5C657.588 387.396 658.755 390.063 658.5 393.5C642.488 394.723 626.488 396.057 610.5 397.5Z" fill="#DC3545"/>
<path fill-rule="evenodd" clip-rule="evenodd" d="M610.5 397.5C613.625 398.479 616.958 398.813 620.5 398.5C615.32 399.815 609.986 399.815 604.5 398.5C606.396 397.534 608.396 397.201 610.5 397.5Z" fill="#DC3545"/>
<path fill-rule="evenodd" clip-rule="evenodd" d="M85.4998 361.5C86.3762 361.369 87.0429 361.702 87.4998 362.5C85.1914 363.873 84.5247 363.54 85.4998 361.5Z" fill="#DC3545"/>
<path fill-rule="evenodd" clip-rule="evenodd" d="M115.5 361.5C116.833 361.5 118.167 361.5 119.5 361.5C117.738 367.963 116.405 367.963 115.5 361.5Z" fill="#DC3545"/>
<path fill-rule="evenodd" clip-rule="evenodd" d="M128.5 359.5C130.288 359.215 131.955 359.548 133.5 360.5C130.111 365.85 125.445 368.517 119.5 368.5C120.305 366.085 121.305 363.751 122.5 361.5C124.631 360.831 126.631 360.165 128.5 359.5Z" fill="#DC3545"/>
<path fill-rule="evenodd" clip-rule="evenodd" d="M168.5 357.5C179.296 356.932 189.963 357.766 200.5 360C202.002 360.583 203.335 361.416 204.5 362.5C203.833 362.833 203.167 363.167 202.5 363.5C185.537 357.621 168.871 358.288 152.5 365.5C150.627 365.518 150.294 365.018 151.5 364C156.888 360.752 162.554 358.585 168.5 357.5Z" fill="#DC3545"/>
<path fill-rule="evenodd" clip-rule="evenodd" d="M525.5 356.5C544.885 354.63 561.885 359.964 576.5 372.5C575.277 373.614 573.944 373.781 572.5 373C555.139 359.124 535.806 355.624 514.5 362.5C513.833 362.167 513.167 361.833 512.5 361.5C516.554 358.82 520.887 357.153 525.5 356.5Z" fill="#DC3545"/>
<path fill-rule="evenodd" clip-rule="evenodd" d="M442.5 349.5C445.5 349.5 448.5 349.5 451.5 349.5C451.602 354.092 450.602 358.425 448.5 362.5C442.841 363.411 437.174 363.245 431.5 362C378.482 361.538 325.482 361.871 272.5 363C271.167 359.667 271.167 356.333 272.5 353C329.326 351.628 385.993 350.461 442.5 349.5Z" fill="#DC3545"/>
<path fill-rule="evenodd" clip-rule="evenodd" d="M640.5 346.5C644.076 348.562 646.242 351.562 647 355.5C643.834 353.147 641.667 350.147 640.5 346.5Z" fill="#DC3545"/>
<path fill-rule="evenodd" clip-rule="evenodd" d="M455.5 347.5C461.537 347.171 467.537 347.504 473.5 348.5C472.675 349.386 471.675 349.719 470.5 349.5C465.5 348.833 460.5 348.167 455.5 347.5Z" fill="#DC3545"/>
<path fill-rule="evenodd" clip-rule="evenodd" d="M263.5 337.5C267.226 337.177 270.893 337.511 274.5 338.5C272.246 342.007 270.246 345.673 268.5 349.5C253.184 350.884 237.851 352.051 222.5 353C237.83 353.5 253.163 353.667 268.5 353.5C268.5 356.833 268.5 360.167 268.5 363.5C253.124 361.745 238.458 364.079 224.5 370.5C218.994 366.506 213.328 362.673 207.5 359C187.258 352.221 167.425 353.054 148 361.5C144.937 360.119 142.104 358.286 139.5 356C122.971 356.063 106.638 357.897 90.5001 361.5C90.3301 360.178 90.6635 359.011 91.5001 358C105.447 351.276 120.114 346.943 135.5 345C178.206 340.516 220.872 338.016 263.5 337.5Z" fill="#DC3545"/>
<path fill-rule="evenodd" clip-rule="evenodd" d="M345.5 334.5C346.043 334.56 346.376 334.893 346.5 335.5C343.914 336.48 341.247 336.813 338.5 336.5C340.833 335.833 343.167 335.167 345.5 334.5Z" fill="#DC3545"/>
<path fill-rule="evenodd" clip-rule="evenodd" d="M275.5 333.5C284.757 333.323 285.257 333.99 277 335.5C275.833 335.333 274.667 335.167 273.5 335C274.416 334.722 275.082 334.222 275.5 333.5Z" fill="#DC3545"/>
<path fill-rule="evenodd" clip-rule="evenodd" d="M289.5 332.5C291.103 332.312 292.437 332.812 293.5 334C291.833 334.667 290.167 334.667 288.5 334C289.056 333.617 289.389 333.117 289.5 332.5Z" fill="#DC3545"/>
<path fill-rule="evenodd" clip-rule="evenodd" d="M638.5 333.5C622.854 333.734 607.188 333.4 591.5 332.5C606.018 332.756 620.518 332.423 635 331.5C636.5 331.833 638 332.167 639.5 332.5C639.376 333.107 639.043 333.44 638.5 333.5Z" fill="#DC3545"/>
<path fill-rule="evenodd" clip-rule="evenodd" d="M338.5 336.5C341.247 336.813 343.914 336.48 346.5 335.5C346.376 334.893 346.043 334.56 345.5 334.5C339.491 334.666 333.491 334.499 327.5 334C366.328 331.032 405.328 330.032 444.5 331C449.192 335.884 451.525 341.718 451.5 348.5C391.823 348.478 332.156 349.145 272.5 350.5C273.396 345.542 275.729 341.376 279.5 338C299.165 337.376 318.832 336.876 338.5 336.5Z" fill="#DC3545"/>
<path fill-rule="evenodd" clip-rule="evenodd" d="M600.5 328.5C601.043 328.56 601.376 328.893 601.5 329.5C591.341 330.823 581.341 330.823 571.5 329.5C581.348 329.827 591.014 329.494 600.5 328.5Z" fill="#DC3545"/>
<path fill-rule="evenodd" clip-rule="evenodd" d="M308.5 328.5C313.179 328.334 317.845 328.501 322.5 329C317.805 331.51 312.805 332.677 307.5 332.5C307.433 331.041 307.766 329.708 308.5 328.5Z" fill="#DC3545"/>
<path fill-rule="evenodd" clip-rule="evenodd" d="M591.5 332.5C607.188 333.4 622.854 333.734 638.5 333.5C635.769 335.071 633.935 337.405 633 340.5C632.599 345.601 632.932 350.601 634 355.5C629.833 359.667 625.667 363.833 621.5 368C618.874 370.146 615.874 371.479 612.5 372C601.5 372.667 590.5 372.667 579.5 372C555.883 351.13 529.883 347.796 501.5 362C496.004 365.916 490.337 369.582 484.5 373C480.167 373.667 475.833 373.667 471.5 373C465.402 371.118 459.402 368.952 453.5 366.5C452.639 361.043 453.306 355.709 455.5 350.5C460.456 349.506 465.456 349.173 470.5 349.5C471.675 349.719 472.675 349.386 473.5 348.5C467.537 347.504 461.537 347.171 455.5 347.5C454.1 341.969 452.1 336.636 449.5 331.5C450.729 330.719 452.062 330.219 453.5 330C467.984 329.069 482.484 328.569 497 328.5C528.504 329.757 560.004 331.09 591.5 332.5Z" fill="#DC3545"/>
<path fill-rule="evenodd" clip-rule="evenodd" d="M288.5 322.5C289.239 322.369 289.906 322.536 290.5 323C286.303 327.231 281.303 329.564 275.5 330C279.896 327.473 284.229 324.973 288.5 322.5Z" fill="#DC3545"/>
<path fill-rule="evenodd" clip-rule="evenodd" d="M640.5 322.5C642.927 323.279 642.927 324.446 640.5 326C637.634 327.457 634.634 327.79 631.5 327C634.592 325.454 637.592 323.954 640.5 322.5Z" fill="#DC3545"/>
<path fill-rule="evenodd" clip-rule="evenodd" d="M317.5 319.5C320.518 319.335 323.518 319.502 326.5 320C327.406 321.699 327.739 323.533 327.5 325.5C321.48 326.413 315.48 326.413 309.5 325.5C311.517 322.506 314.184 320.506 317.5 319.5Z" fill="#DC3545"/>
<path fill-rule="evenodd" clip-rule="evenodd" d="M348.5 296.5C348.5 296.833 348.5 297.167 348.5 297.5C328.004 307.246 308.004 317.746 288.5 329C307.473 316.346 327.473 305.512 348.5 296.5Z" fill="#DC3545"/>
<path fill-rule="evenodd" clip-rule="evenodd" d="M600.5 328.5C591.014 329.494 581.348 329.827 571.5 329.5C550.494 328.472 529.494 327.305 508.5 326C514.059 323.275 518.059 319.109 520.5 313.5C520.392 312.558 520.059 311.725 519.5 311C499.231 304.246 478.565 299.08 457.5 295.5C457.147 293.365 457.98 292.032 460 291.5C469.208 293.125 478.375 294.958 487.5 297C525.215 307.441 562.882 317.941 600.5 328.5Z" fill="#DC3545"/>
<path fill-rule="evenodd" clip-rule="evenodd" d="M455.5 300.5C464.27 301.287 472.936 302.787 481.5 305C492.639 307.743 503.639 310.91 514.5 314.5C511.15 319.343 506.483 321.843 500.5 322C482.553 323.943 464.553 325.109 446.5 325.5C448.907 316.945 451.907 308.612 455.5 300.5Z" fill="#DC3545"/>
<path fill-rule="evenodd" clip-rule="evenodd" d="M377.5 295.5C402.309 294.624 426.975 295.957 451.5 299.5C448.466 308.1 445.133 316.6 441.5 325C405.181 326.341 368.848 326.841 332.5 326.5C333.142 320.614 330.809 316.448 325.5 314C341.783 304.683 359.116 298.516 377.5 295.5Z" fill="#DC3545"/>
<path fill-rule="evenodd" clip-rule="evenodd" d="M348.5 297.5C348.5 297.167 348.5 296.833 348.5 296.5C351.546 293.638 355.212 291.804 359.5 291C391.144 285.136 422.811 285.136 454.5 291C455.615 293.894 454.448 295.061 451 294.5C426.634 290.735 402.134 289.568 377.5 291C367.782 293.013 358.115 295.18 348.5 297.5Z" fill="#DC3545"/>
<path fill-rule="evenodd" clip-rule="evenodd" d="M385.5 423.5C385.842 424.338 386.508 424.672 387.5 424.5C352.341 425.996 317.007 426.996 281.5 427.5C281.5 427.167 281.5 426.833 281.5 426.5C316.156 425.25 350.822 424.25 385.5 423.5Z" fill="#DC3545"/>
<path fill-rule="evenodd" clip-rule="evenodd" d="M95.5 428.5C102.379 427.195 109.379 427.361 116.5 429C109.482 429.565 102.482 429.399 95.5 428.5Z" fill="#DC3545"/>
<path fill-rule="evenodd" clip-rule="evenodd" d="M293.5 433.5C278.657 433.829 263.99 433.496 249.5 432.5C318.432 429.245 387.432 427.745 456.5 428C463.826 429.232 471.159 430.399 478.5 431.5C416.844 433.085 355.177 433.751 293.5 433.5Z" fill="#DC3545"/>
<path fill-rule="evenodd" clip-rule="evenodd" d="M249.5 432.5C263.99 433.496 278.657 433.829 293.5 433.5C278.328 434.826 262.995 434.826 247.5 433.5C247.957 432.702 248.624 432.369 249.5 432.5Z" fill="#DC3545"/>
</svg>
