<svg width="532" height="555" viewBox="0 0 532 555" fill="none" xmlns="http://www.w3.org/2000/svg">
<path d="M14 12V142.529C14 403.179 226.569 523.48 266.7 542.95C306.831 523.48 519.4 403.179 519.4 142.529V12H14Z" fill="white"/>
<path fill-rule="evenodd" clip-rule="evenodd" d="M219.962 12.0249V160.256H14.387C15.5208 190.385 19.4888 218.616 25.7048 244.894H219.962V515.456C241.089 529.675 258.025 538.734 266.767 542.975C275.509 538.734 292.445 529.676 313.573 515.456V244.894H507.766C513.982 218.616 517.95 190.385 519.084 160.256H313.573V12.0249H219.962Z" fill="#D8292C" stroke="black"/>
<path d="M14.0488 12.0249V142.554C14.0488 403.204 226.618 523.505 266.749 542.975C306.88 523.505 519.449 403.204 519.449 142.554V12.0249H14.0488Z" stroke="black" stroke-width="3"/>
</svg>
